<svg width="40" height="41" viewBox="0 0 40 41" fill="none" xmlns="http://www.w3.org/2000/svg">
<path d="M17.6406 37.0784L17.4453 36.8987L3.75781 24.1878C1.35937 21.9612 0 18.8362 0 15.5628V15.3049C0 9.80495 3.90625 5.0862 9.3125 4.05495C12.3906 3.4612 15.5391 4.17214 18.0469 5.93776C18.75 6.43776 19.4062 7.01589 20 7.67995C20.3281 7.30495 20.6797 6.9612 21.0547 6.64089C21.3438 6.39089 21.6406 6.15651 21.9531 5.93776C24.4609 4.17214 27.6094 3.4612 30.6875 4.04714C36.0938 5.07839 40 9.80495 40 15.3049V15.5628C40 18.8362 38.6406 21.9612 36.2422 24.1878L22.5547 36.8987L22.3594 37.0784C21.7188 37.6721 20.875 38.0081 20 38.0081C19.125 38.0081 18.2812 37.68 17.6406 37.0784ZM18.6797 11.8284C18.6484 11.8049 18.625 11.7737 18.6016 11.7424L17.2109 10.1799L17.2031 10.1721C15.3984 8.1487 12.6719 7.22682 10.0156 7.73464C6.375 8.42995 3.75 11.6018 3.75 15.3049V15.5628C3.75 17.7893 4.67969 19.9221 6.3125 21.4378L20 34.1487L33.6875 21.4378C35.3203 19.9221 36.25 17.7893 36.25 15.5628V15.3049C36.25 11.6096 33.625 8.42995 29.9922 7.73464C27.3359 7.22682 24.6016 8.15651 22.8047 10.1721C22.8047 10.1721 22.8047 10.1721 22.7969 10.1799C22.7891 10.1878 22.7969 10.1799 22.7891 10.1878L21.3984 11.7503C21.375 11.7815 21.3438 11.8049 21.3203 11.8362C20.9688 12.1878 20.4922 12.3831 20 12.3831C19.5078 12.3831 19.0312 12.1878 18.6797 11.8362V11.8284Z" fill="#F58C8C"/>
</svg>
