<svg width="114" height="75" viewBox="0 0 114 75" fill="none" xmlns="http://www.w3.org/2000/svg">
<path d="M13.3455 38.2C15.7988 38.2 17.9588 38.5867 19.8255 39.36C21.7188 40.1067 23.3588 41.2133 24.7455 42.68L21.4255 47.12C20.2788 45.92 19.0388 45.0267 17.7055 44.44C16.3988 43.8267 14.9055 43.52 13.2255 43.52C12.2388 43.52 11.4388 43.6267 10.8255 43.84C10.2121 44.0533 9.77214 44.3467 9.50547 44.72C9.2388 45.0933 9.10547 45.52 9.10547 46C9.10547 46.56 9.3588 47.04 9.86547 47.44C10.3988 47.8133 11.2521 48.1333 12.4255 48.4L16.8655 49.4C19.5055 50.0133 21.4388 50.9067 22.6655 52.08C23.8921 53.2533 24.5055 54.8133 24.5055 56.76C24.5055 58.6267 24.0255 60.2133 23.0655 61.52C22.1055 62.8 20.7855 63.7733 19.1055 64.44C17.4255 65.08 15.5055 65.4 13.3455 65.4C11.5855 65.4 9.90547 65.2133 8.30547 64.84C6.70547 64.44 5.26547 63.88 3.98547 63.16C2.70547 62.44 1.62547 61.6133 0.745469 60.68L4.06547 56.08C4.73214 56.8533 5.54547 57.5467 6.50547 58.16C7.49214 58.7467 8.5588 59.2133 9.70547 59.56C10.8788 59.9067 12.0655 60.08 13.2655 60.08C14.1988 60.08 14.9721 59.9867 15.5855 59.8C16.2255 59.6133 16.6921 59.3333 16.9855 58.96C17.2788 58.5867 17.4255 58.1467 17.4255 57.64C17.4255 57.08 17.2255 56.6133 16.8255 56.24C16.4255 55.84 15.6655 55.5067 14.5455 55.24L9.66547 54.16C8.17214 53.8133 6.8388 53.36 5.66547 52.8C4.5188 52.2133 3.61214 51.44 2.94547 50.48C2.2788 49.4933 1.94547 48.2667 1.94547 46.8C1.94547 45.1467 2.3988 43.68 3.30547 42.4C4.21214 41.0933 5.5188 40.0667 7.22547 39.32C8.93214 38.5733 10.9721 38.2 13.3455 38.2ZM35.0467 36.52V58.2C35.0467 59.08 35.1934 59.7067 35.4867 60.08C35.7801 60.4533 36.2734 60.64 36.9667 60.64C37.3667 60.64 37.7001 60.6133 37.9667 60.56C38.2334 60.5067 38.5534 60.4267 38.9267 60.32L38.4867 64.4C38.0067 64.6933 37.3801 64.9333 36.6067 65.12C35.8334 65.3067 35.0734 65.4 34.3267 65.4C32.1934 65.4 30.6467 64.9067 29.6867 63.92C28.7267 62.9333 28.2467 61.32 28.2467 59.08V36.52H35.0467ZM48.1727 65.4C46.8127 65.4 45.6127 65.1733 44.5727 64.72C43.5593 64.24 42.7593 63.48 42.1727 62.44C41.586 61.4 41.2927 60.04 41.2927 58.36V45H48.0927V56.76C48.0927 58.04 48.346 58.9333 48.8527 59.44C49.3593 59.9467 50.0793 60.2 51.0127 60.2C51.4927 60.2 51.946 60.12 52.3727 59.96C52.7993 59.7733 53.1727 59.5067 53.4927 59.16C53.8127 58.7867 54.0527 58.32 54.2127 57.76C54.3993 57.1733 54.4927 56.4933 54.4927 55.72V45H61.2927V65H55.2127L55.0127 61.24C54.3727 62.6533 53.4793 63.7067 52.3327 64.4C51.186 65.0667 49.7993 65.4 48.1727 65.4ZM73.5383 65.4C71.8849 65.4 70.4316 65 69.1783 64.2C67.9516 63.3733 66.9916 62.1867 66.2983 60.64C65.6316 59.0933 65.2983 57.24 65.2983 55.08C65.2983 52.84 65.6449 50.9467 66.3383 49.4C67.0583 47.8533 68.0449 46.6667 69.2983 45.84C70.5783 45.0133 72.0449 44.6 73.6983 44.6C75.5116 44.6 76.9649 45.16 78.0583 46.28C79.1783 47.3733 79.8983 48.7733 80.2183 50.48L79.5783 51.32V36.52H86.3783V65H80.2983L79.8583 58.2L80.6583 58.8C80.4983 60.1333 80.0849 61.2933 79.4183 62.28C78.7783 63.2667 77.9516 64.04 76.9383 64.6C75.9516 65.1333 74.8183 65.4 73.5383 65.4ZM75.8983 60.4C76.6716 60.4 77.3249 60.2 77.8583 59.8C78.4183 59.3733 78.8449 58.7467 79.1383 57.92C79.4316 57.0933 79.5783 56.08 79.5783 54.88C79.5783 53.76 79.4316 52.8133 79.1383 52.04C78.8716 51.24 78.4583 50.64 77.8983 50.24C77.3649 49.8133 76.7116 49.6 75.9383 49.6C74.7649 49.6 73.8316 50.04 73.1383 50.92C72.4716 51.7733 72.1383 53.1333 72.1383 55C72.1383 56.8667 72.4716 58.24 73.1383 59.12C73.8049 59.9733 74.7249 60.4 75.8983 60.4ZM98.6164 65.4C96.9631 65.4 95.5097 65 94.2564 64.2C93.0297 63.3733 92.0697 62.1867 91.3764 60.64C90.7097 59.0933 90.3764 57.24 90.3764 55.08C90.3764 52.84 90.7231 50.9467 91.4164 49.4C92.1364 47.8533 93.1231 46.6667 94.3764 45.84C95.6564 45.0133 97.1231 44.6 98.7764 44.6C100.59 44.6 102.043 45.16 103.136 46.28C104.256 47.3733 104.976 48.7733 105.296 50.48L104.656 51.32V36.52H111.456V65H105.376L104.936 58.2L105.736 58.8C105.576 60.1333 105.163 61.2933 104.496 62.28C103.856 63.2667 103.03 64.04 102.016 64.6C101.03 65.1333 99.8964 65.4 98.6164 65.4ZM100.976 60.4C101.75 60.4 102.403 60.2 102.936 59.8C103.496 59.3733 103.923 58.7467 104.216 57.92C104.51 57.0933 104.656 56.08 104.656 54.88C104.656 53.76 104.51 52.8133 104.216 52.04C103.95 51.24 103.536 50.64 102.976 50.24C102.443 49.8133 101.79 49.6 101.016 49.6C99.8431 49.6 98.9097 50.04 98.2164 50.92C97.5497 51.7733 97.2164 53.1333 97.2164 55C97.2164 56.8667 97.5497 58.24 98.2164 59.12C98.8831 59.9733 99.8031 60.4 100.976 60.4Z" fill="white"/>
<path d="M68.1666 29.2142C70.6791 27.6669 72.3333 25.032 72.3333 22.0416C72.3333 17.5497 68.601 13.8599 63.8338 13.4537C62.8587 7.99651 57.7078 3.83325 51.5 3.83325C45.2921 3.83325 40.1412 7.99651 39.1661 13.4537C34.3989 13.8599 30.6666 17.5497 30.6666 22.0416C30.6666 25.032 32.3208 27.6669 34.8333 29.2142M43.1666 28.7499H43.1875M43.1666 36.4166H43.1875M51.5 32.5833H51.5208M51.5 40.2499H51.5208M59.8333 28.7499H59.8541M59.8333 36.4166H59.8541" stroke="white" stroke-width="4" stroke-linecap="round" stroke-linejoin="round"/>
</svg>
