<svg width="60" height="61" viewBox="0 0 60 61" fill="none" xmlns="http://www.w3.org/2000/svg">
<path d="M45.3604 34.6404L54.6004 30.5004L45.3604 26.4204L51.2404 18.2004L41.2204 19.2804L42.2404 9.20039L34.0804 15.1404L30.0004 5.90039L25.9204 15.1404L17.7004 9.20039L18.7804 19.2204L8.70039 18.2004L14.6404 26.3604L5.40039 30.5004L14.6404 34.5804L8.70039 42.8004L18.7204 41.7204L17.7004 51.8004L25.8604 45.8604L30.0004 55.1004L34.0804 45.8604L42.3004 51.7404L41.2204 41.7204L51.3004 42.7404L45.3604 34.6404Z" fill="url(#paint0_radial_46_1776)"/>
<path d="M16.9706 38.0052C21.1112 45.15 30.2936 47.6112 37.4954 43.5288C44.6978 39.4458 47.0984 30.1998 43.0172 22.9944C38.876 15.8496 29.6936 13.3884 22.4912 17.4708C15.3506 21.6138 12.8894 30.8598 16.9706 38.0052Z" fill="#FFD348"/>
<path d="M19.0803 36.7961C22.5591 42.7949 30.2973 44.8943 36.2961 41.4155C42.2949 37.9361 44.3943 30.1979 40.9155 24.1991C37.4361 18.2003 29.6979 16.1003 23.6991 19.5797C17.7003 23.0603 15.6009 30.7979 19.0803 36.7961Z" fill="url(#paint1_linear_46_1776)"/>
<defs>
<radialGradient id="paint0_radial_46_1776" cx="0" cy="0" r="1" gradientUnits="userSpaceOnUse" gradientTransform="translate(30.0004 30.5004) scale(24.6)">
<stop offset="0.514" stop-color="#D6B849"/>
<stop offset="0.652" stop-color="#FFCE47"/>
<stop offset="1" stop-color="#FFDB73"/>
</radialGradient>
<linearGradient id="paint1_linear_46_1776" x1="21.8979" y1="20.8451" x2="38.0973" y2="40.1507" gradientUnits="userSpaceOnUse">
<stop stop-color="#FFAF22"/>
<stop offset="0.99" stop-color="#F09900"/>
</linearGradient>
</defs>
</svg>
